<svg width="162" height="51" viewBox="0 0 162 51" fill="none" xmlns="http://www.w3.org/2000/svg">
<path d="M79.616 34.32V38H67.008V16.24H79.296V19.92H70.848V25.136H78.336V28.816H70.848V34.32H79.616ZM91.6203 24.88C91.0869 24.88 90.4789 25.008 89.7963 25.264C89.1136 25.52 88.3029 26.0213 87.3643 26.768V38H83.6843V21.776H87.1723V23.952C88.1749 23.0773 89.1243 22.448 90.0203 22.064C90.9163 21.6587 91.8229 21.456 92.7403 21.456C94.2976 21.456 95.4816 21.9573 96.2923 22.96C97.1029 23.9413 97.5083 25.328 97.5083 27.12V38H93.8283V27.568C93.8283 25.776 93.0923 24.88 91.6203 24.88ZM105.604 16.24V16.848C105.604 18.4053 105.38 19.888 104.932 21.296C104.484 22.704 103.726 24.24 102.66 25.904L100.356 24.656C100.868 23.6107 101.241 22.6827 101.476 21.872C101.71 21.0613 101.86 20.2187 101.924 19.344C101.988 18.4693 102.02 17.4347 102.02 16.24H105.604ZM118.882 37.456C118.327 37.712 117.687 37.9147 116.962 38.064C116.236 38.2347 115.5 38.32 114.754 38.32C113.516 38.32 112.524 38.064 111.778 37.552C111.031 37.04 110.487 36.3253 110.146 35.408C109.826 34.4907 109.666 33.4453 109.666 32.272V24.976H107.042V21.776H109.666V17.552H113.346V21.776H118.402V24.976H113.346V32.272C113.346 33.2533 113.527 33.936 113.89 34.32C114.274 34.6827 114.818 34.864 115.522 34.864C115.863 34.864 116.226 34.832 116.61 34.768C117.015 34.6827 117.463 34.544 117.954 34.352L118.882 37.456ZM134.129 38.16C133.041 38.16 132.166 37.936 131.505 37.488C130.865 37.04 130.395 36.4853 130.097 35.824C129.179 36.6773 128.294 37.3067 127.441 37.712C126.587 38.1173 125.67 38.32 124.689 38.32C123.259 38.32 122.203 37.8613 121.521 36.944C120.859 36.0267 120.529 34.864 120.529 33.456C120.529 32.5173 120.699 31.696 121.041 30.992C121.403 30.2667 121.99 29.7013 122.801 29.296C123.611 28.8907 124.721 28.688 126.129 28.688C126.683 28.688 127.259 28.7307 127.857 28.816C128.454 28.88 129.051 28.9653 129.649 29.072V27.184C129.649 26.288 129.403 25.68 128.913 25.36C128.422 25.0187 127.761 24.848 126.929 24.848C126.289 24.848 125.585 24.9333 124.817 25.104C124.07 25.2747 123.259 25.5413 122.385 25.904L121.329 22.768C123.483 21.8933 125.435 21.456 127.185 21.456C128.763 21.456 129.979 21.7227 130.833 22.256C131.707 22.7893 132.315 23.4933 132.657 24.368C132.998 25.2427 133.169 26.1813 133.169 27.184V33.424C133.169 33.744 133.254 34.0533 133.425 34.352C133.617 34.6293 133.979 34.768 134.513 34.768H134.865V38.16H134.129ZM124.081 33.392C124.081 33.968 124.209 34.4267 124.465 34.768C124.721 35.088 125.094 35.248 125.585 35.248C126.075 35.248 126.63 35.12 127.249 34.864C127.867 34.608 128.667 34.0107 129.649 33.072V31.696C128.539 31.504 127.451 31.408 126.385 31.408C125.553 31.408 124.955 31.5787 124.593 31.92C124.251 32.2613 124.081 32.752 124.081 33.392ZM137.963 33.424V14.32H141.643V33.424C141.643 33.744 141.718 34.0533 141.867 34.352C142.038 34.6293 142.358 34.768 142.827 34.768H143.339V38.16H142.443C141.227 38.16 140.299 37.9253 139.659 37.456C139.019 36.9867 138.571 36.3893 138.315 35.664C138.081 34.9387 137.963 34.192 137.963 33.424ZM156.599 38L152.599 31.248C151.959 31.888 151.287 32.528 150.583 33.168V38H146.903V14.32H150.583V29.104C151.799 27.8667 152.844 26.6827 153.719 25.552C154.615 24.4 155.436 23.1413 156.183 21.776H160.407C159.703 23.056 158.935 24.272 158.103 25.424C157.271 26.576 156.354 27.7387 155.351 28.912L161.047 38H156.599Z" fill="black"/>
<path d="M34.7597 11.9725C35.9942 10.4793 38.4182 11.4383 38.2971 13.372L37.8802 20.0265C37.826 20.8913 38.3348 21.6926 39.1405 22.0113L45.3405 24.4642C47.1421 25.177 46.9791 27.7787 45.1026 28.261L38.6449 29.9209C37.8057 30.1366 37.2009 30.8681 37.1467 31.7328L36.7298 38.3874C36.6086 40.3211 34.0839 40.97 33.0453 39.3344L29.4712 33.7057C29.0067 32.9743 28.1241 32.6251 27.2849 32.8408L20.8272 34.5006C18.9508 34.9829 17.5534 32.7823 18.788 31.2891L23.0367 26.1505C23.5888 25.4828 23.6482 24.5355 23.1837 23.804L19.6096 18.1753C18.571 16.5397 20.2322 14.5307 22.0337 15.2434L28.2338 17.6963C29.0395 18.0151 29.9588 17.7788 30.5109 17.111L34.7597 11.9725Z" fill="url(#paint0_angular_141_548)"/>
<path d="M14.1293 17.3521C15.1334 15.9395 17.3586 16.637 17.3765 18.3701L17.39 19.6691C17.398 20.4442 17.9042 21.1259 18.6438 21.3578L19.8834 21.7464C21.5372 22.2648 21.5614 24.5967 19.9187 25.1493L18.6874 25.5635C17.9528 25.8107 17.4608 26.5027 17.4689 27.2778L17.4823 28.5768C17.5003 30.3099 15.2901 31.0534 14.2569 29.6619L13.4824 28.6189C13.0204 27.9966 12.2102 27.7426 11.4755 27.9897L10.2442 28.404C8.60155 28.9566 7.21138 27.0843 8.21552 25.6717L8.96816 24.6128C9.41722 23.9811 9.40842 23.132 8.94636 22.5097L8.17192 21.4667C7.13871 20.0752 8.48977 18.1745 10.1436 18.693L11.3832 19.0816C12.1228 19.3134 12.9275 19.0427 13.3766 18.4109L14.1293 17.3521Z" fill="url(#paint1_angular_141_548)"/>
<path d="M45.9941 11.4169C46.878 10.1735 48.8365 10.7875 48.8524 12.313V12.313C48.8594 12.9952 49.305 13.5952 49.956 13.7993V13.7993C51.4116 14.2557 51.4329 16.3081 49.987 16.7945V16.7945C49.3404 17.0121 48.9074 17.6213 48.9145 18.3034V18.3034C48.9303 19.8289 46.9848 20.4834 46.0754 19.2586V19.2586C45.6687 18.7108 44.9556 18.4872 44.3089 18.7048V18.7048C42.8631 19.1912 41.6394 17.5432 42.5233 16.2998V16.2998C42.9185 15.7438 42.9108 14.9964 42.5041 14.4487V14.4487C41.5947 13.2239 42.7838 11.5509 44.2395 12.0072V12.0072C44.8905 12.2113 45.5989 11.973 45.9941 11.4169V11.4169Z" fill="url(#paint2_angular_141_548)"/>
<defs>
<radialGradient id="paint0_angular_141_548" cx="0" cy="0" r="1" gradientUnits="userSpaceOnUse" gradientTransform="translate(31.4533 25.5) rotate(50.8339) scale(17.061)">
<stop offset="0.59" stop-color="#D94F70"/>
<stop offset="0.868295" stop-color="#2D6EFE"/>
<stop offset="1" stop-color="#1B4298"/>
</radialGradient>
<radialGradient id="paint1_angular_141_548" cx="0" cy="0" r="1" gradientUnits="userSpaceOnUse" gradientTransform="translate(13.9822 23.5092) rotate(46.6548) scale(9.68646)">
<stop offset="0.59" stop-color="#D94F70"/>
<stop offset="0.868295" stop-color="#2D6EFE"/>
<stop offset="1" stop-color="#1B4298"/>
</radialGradient>
<radialGradient id="paint2_angular_141_548" cx="0" cy="0" r="1" gradientUnits="userSpaceOnUse" gradientTransform="translate(46.3355 15.3346) rotate(46.6548) scale(7.15946)">
<stop offset="0.59" stop-color="#D94F70"/>
<stop offset="0.868295" stop-color="#2D6EFE"/>
<stop offset="1" stop-color="#1B4298"/>
</radialGradient>
</defs>
</svg>
